<?xml version="1.0" standalone="no"?>
<svg
  width="600"
  height="600"
  viewBox="0 0 600 600"
  xmlns="http://www.w3.org/2000/svg"
>
  <g transform="translate(300,300)">
    <path d="M40.2,-66C46.6,-58.5,42.4,-38,51.6,-22.3C60.8,-6.6,83.3,4.3,85.3,14.4C87.2,24.6,68.6,33.9,61.9,68.9C55.3,104,60.8,164.7,48.6,170.8C36.3,176.9,6.5,128.3,-35.5,117.5C-77.6,106.8,-131.7,133.9,-171.2,126.9C-210.7,119.9,-235.5,78.7,-249.3,31.4C-263,-15.9,-265.7,-69.2,-232.3,-91C-198.9,-112.8,-129.5,-103.1,-84.7,-93C-40,-82.9,-20,-72.5,-1.5,-70.1C16.9,-67.7,33.9,-73.4,40.2,-66Z" fill="#0d0d0d" />
  </g>
</svg>
  